<svg width="101" height="82" viewBox="0 0 101 82" fill="none" xmlns="http://www.w3.org/2000/svg">
<path d="M96.1885 3.12004C86.465 -3.46566 71.6022 2.65644 60.9118 3.02523C43.94 3.61072 27.0791 -1.03203 10.0916 1.89802C-1.30562 3.86388 2.68392 16.8368 3.02042 25.0675C3.44704 35.4839 -1.79579 48.3901 3.08606 58.309C7.71058 67.706 22.9874 64.3702 31.5025 63.3435C30.4581 68.6306 30.6868 74.1318 29.0616 79.3121C28.486 81.1462 30.5785 82.4755 32.1245 81.6671C39.5306 77.7921 44.8219 71.8445 47.8056 64.0728C56.142 65.1979 64.4018 64.3551 72.7654 63.6758C78.54 63.2065 84.5835 62.7434 89.4533 59.293C96.9105 54.0095 96.81 40.2568 98.4997 32.1746C100.083 24.6029 104.267 8.59102 96.1885 3.12004ZM94.4993 31.0708C93.1173 38.3608 92.9668 49.5413 87.8896 55.2524C84.5147 59.0477 77.3071 59.2367 72.7654 59.5446C64.4326 60.1103 56.2326 61.1724 47.8962 59.9749C46.6669 59.7983 45.772 60.5958 45.4459 61.5235C45.0438 61.7157 44.6958 62.0506 44.4979 62.5596C42.3955 67.9738 38.8368 72.5545 34.1268 75.7492C34.7159 71.0132 34.0304 66.2454 33.4293 61.4188C33.3653 60.9041 32.8584 60.6208 32.4553 60.7338C32.3568 60.7072 32.2709 60.6671 32.1568 60.6593C24.1282 60.0978 8.03457 64.4296 5.33945 54.2367C3.01417 45.4408 5.42019 35.1823 5.92182 26.2609C6.12445 22.6516 5.46447 18.9668 5.24361 15.3684C5.00973 11.5622 4.50706 7.04291 9.18107 5.34062C11.9726 4.32383 15.2912 4.52906 18.2264 4.51656C31.588 4.46135 44.7166 6.27876 58.0328 6.90435C67.3371 7.34138 76.4794 4.63949 85.7992 4.72023C100.417 4.84837 96.3573 21.2717 94.4993 31.0708Z" fill="#231E20"/>
<path d="M28.4164 32.1783C27.3058 31.6329 26.1239 31.2214 24.9514 30.8333C24.0721 30.5421 22.6766 30.0306 22.1052 31.0943C21.4806 32.258 22.9438 32.8007 23.7913 33.0377C24.1914 33.1497 24.5951 33.2779 24.9977 33.4045C23.8721 33.9748 22.7084 34.49 21.5624 34.8838C20.7472 35.1635 20.6425 35.9897 21.0024 36.5163C20.8821 36.7137 20.8279 36.9653 20.8956 37.2659C21.1665 38.4618 21.2514 39.5094 21.1618 40.6178C19.8679 39.5828 18.5563 38.5869 17.6947 37.1195C17.3937 36.6075 16.7894 36.6179 16.367 36.9486C15.1924 37.8691 13.8719 38.5775 12.5384 39.2599C12.8186 38.2165 13.1301 37.183 13.5484 36.173C13.6948 35.8204 13.5573 35.4912 13.3083 35.2625C13.3025 35.238 13.3098 35.2135 13.3005 35.189C12.9468 34.2665 12.1185 33.9467 11.3143 33.4732C10.9663 33.2685 10.6751 33.0362 10.3991 32.7424C10.3444 32.6846 10.3199 32.6189 10.2923 32.5544C11.5758 32.0032 12.9129 31.5037 14.2688 31.2099C14.6647 31.5292 15.2668 31.56 15.6101 30.9682C16.4805 29.466 17.5812 28.0689 18.4938 26.5786C19.0538 27.9278 19.5642 29.2857 19.8388 30.7468C20.0528 31.885 21.6259 31.4933 21.7218 30.4921C21.9546 28.0512 20.0159 26.0145 19.6606 23.6871C19.5023 22.6495 18.1151 22.7266 17.6374 23.4225C16.2868 25.3915 15.1064 27.5902 14.1047 29.7655C12.1191 29.4597 9.89796 29.4071 8.07534 30.2911C7.45339 30.5927 7.26379 31.3532 7.39088 31.973C7.62425 33.1075 8.37798 34.2228 9.33018 34.8781C9.90056 35.2708 10.6569 35.7553 11.4221 35.9886C10.2699 37.6503 9.60626 39.5333 9.1437 41.5247C8.89836 42.5816 10.1068 43.8083 11.1403 43.0593C13.0588 41.6695 15.1127 40.4579 16.8353 38.8317C18.0385 40.4845 19.6992 41.6565 21.1801 43.0963C21.6723 43.5755 22.5943 43.3874 22.7594 42.6795C23.211 40.7455 23.4803 38.6978 22.8105 36.7846C24.8763 36.2975 26.6427 35.4672 28.4169 34.2322C29.0904 33.7634 29.281 32.6028 28.4164 32.1783Z" fill="#231E20"/>
<path d="M87.4985 31.5058C86.2025 31.4693 84.8201 31.5876 83.5439 31.8397C83.6924 30.9385 83.1423 29.9191 82.7954 29.1118C82.187 27.6939 81.2671 26.4172 80.2086 25.3035C79.7085 24.7774 78.6516 24.8482 78.3235 25.5462C77.4176 27.4725 76.5561 29.4592 76.0998 31.5438C73.9552 31.2068 71.7581 31.4178 69.5938 31.4615C69.4958 31.4636 69.4073 31.5084 69.3125 31.5344C69.1979 31.3464 69.039 31.1891 68.7775 31.1469C66.9445 30.8536 64.7083 30.7135 62.844 31.1886C63.1341 30.152 62.6169 28.9847 62.1944 28.0194C61.6751 26.8307 60.9135 25.9176 59.866 25.1576C59.3696 24.7972 58.5664 25.0581 58.2908 25.5707C57.5397 26.9651 56.7052 28.3611 56.1312 29.8483C54.1315 30.1832 52.2031 30.8297 50.2643 31.4308C50.0471 31.4985 49.8559 31.6251 49.7033 31.7876C48.0839 31.2834 46.292 30.7958 44.636 30.9469C44.6251 30.9479 44.6168 30.9542 44.6058 30.9557C44.3855 28.5455 43.14 25.8759 41.8873 23.9111C41.2929 22.9792 40.0298 23.2194 39.6667 24.2013C39.0078 25.9827 37.9998 27.6277 37.4159 29.4352C35.101 29.5191 32.9487 30.0061 30.6645 30.6416C29.3805 30.999 29.1571 32.7669 30.2984 33.4435C31.5084 34.1613 32.7002 34.9078 33.9441 35.5672C34.278 35.7443 34.6572 35.9438 35.0495 36.0907C33.9118 37.6618 33.3998 39.5839 32.9409 41.5039C32.5382 43.1885 34.6145 43.8589 35.5683 42.6118C36.6054 41.2554 38.1983 40.6001 39.5068 39.5552C40.5725 41.1096 42.005 42.354 43.3651 43.6995C44.1282 44.4548 45.2945 43.6818 45.0861 42.6973C44.6913 40.8272 45.2799 38.8895 45.0267 36.9637C46.9796 36.3256 48.7949 35.2781 50.605 34.3296C51.9135 35.387 53.6934 36.5486 55.1342 36.0652C55.5603 35.9225 55.8166 35.4255 55.5618 35.0146C55.1566 34.3593 54.5643 34.0769 53.9049 33.6998C53.6366 33.5467 53.3986 33.3545 53.1511 33.1753C54.2096 32.7523 55.2431 32.258 56.2723 31.7662C56.6323 31.9366 57.0823 31.8871 57.2761 31.4464C57.3063 31.3782 57.347 31.3167 57.3787 31.2495C57.4256 31.2287 57.472 31.2047 57.5189 31.1839C57.8626 31.0318 57.9574 30.664 57.8819 30.3307C58.3945 29.5087 58.9998 28.7471 59.5451 27.9481C59.8306 28.3064 60.0629 28.7055 60.2676 29.1451C60.714 30.1061 60.6739 31.1094 61.5568 31.7886C61.6167 31.8345 61.6938 31.8501 61.7683 31.8709C61.6121 32.422 62.023 33.107 62.7643 32.9341C64.153 32.6096 65.5339 32.982 66.9174 33.1221C65.935 34.1717 64.09 34.2707 63.018 35.3115C62.6544 35.6652 62.7018 36.0803 62.9393 36.3757C62.7945 36.5147 62.7085 36.72 62.7388 37.0033C62.8883 38.4155 63.33 39.7922 63.3534 41.1924C62.3929 40.6204 61.4068 40.0808 60.7291 39.1895C60.3062 38.6337 59.6405 38.4983 59.0899 38.9786C57.9793 39.9474 56.588 40.4933 55.3577 41.271C55.4196 39.6922 55.7962 38.0696 56.512 36.7429C56.7573 36.2876 56.2296 35.6308 55.7483 35.9798C53.3788 37.6982 52.9303 41.109 53.3642 43.801C53.5314 44.8423 54.8435 44.6949 55.3321 44.0584C56.4021 42.665 58.2137 42.056 59.6946 41.0986C60.8265 42.1404 62.272 42.6608 63.4498 43.6911C64.0025 44.174 64.9541 44.0276 65.1489 43.2426C65.6698 41.1382 65.2781 38.7582 64.4817 36.7684C64.452 36.6955 64.4051 36.6377 64.3603 36.5778C64.701 36.4413 65.0224 36.2657 65.3594 36.0746C65.9319 35.7501 66.5496 35.5157 67.119 35.1807C67.7487 34.8104 68.2905 34.2973 68.7306 33.7097C69.0958 34.4963 69.5984 35.1786 70.3225 35.7219C71.2846 36.4434 72.7061 37.3602 73.936 37.306C74.5261 37.2799 75.0538 36.5903 74.6647 36.036C73.8552 34.8802 72.4853 34.603 71.569 33.7358C73.3692 33.5446 75.1825 33.2378 76.9598 33.5055C77.9021 33.6472 78.3922 32.5101 77.7765 32.0038C78.3229 30.7396 78.9334 29.5102 79.5788 28.296C79.944 28.8065 80.2747 29.3425 80.5717 29.9155C81.0587 30.8542 81.1858 32.3043 82.2265 32.7888C82.4636 32.8992 82.6907 32.9008 82.8928 32.82C82.9428 33.1284 83.1313 33.4081 83.4772 33.4779C84.108 33.605 84.7675 33.6962 85.4295 33.7545C85.0451 34.3285 84.644 34.8911 84.2028 35.4334C83.7246 36.0214 83.1985 36.5653 82.6448 37.0815C82.1198 37.5696 81.6754 37.8446 81.7442 38.6322C81.751 38.7103 81.7958 38.7614 81.8145 38.8306C81.4968 39.0822 81.3061 39.4932 81.4442 40.0407C81.7093 41.0877 81.9822 42.0961 82.1974 43.1207C81.0879 42.3545 79.9856 41.5883 79.1022 40.5194C78.6772 40.0047 77.8948 40.1329 77.4504 40.5194C76.3003 41.5221 74.8569 42.0029 73.4427 42.5431C73.8438 40.9851 74.3745 39.3984 75.2184 38.2056C75.3299 38.0483 75.1439 37.7956 74.9606 37.8691C73.8307 38.3238 73.1932 38.3962 72.4925 39.5802C71.606 41.0783 71.0351 42.5972 70.6387 44.2896C70.4084 45.2773 71.4414 46.1373 72.3556 45.6091C74.2459 44.5183 76.3607 44.0516 78.1656 42.8712C79.6205 44.2495 81.3889 45.1324 82.8923 46.4951C83.6121 47.1473 84.8571 46.7243 84.8472 45.6851C84.8274 43.5692 84.557 41.3763 83.7892 39.3932C83.7694 39.3427 83.7351 39.3125 83.7116 39.2666C83.7226 39.2573 83.7366 39.2505 83.747 39.2406C85.6921 37.5508 87.0303 35.3344 88.4987 33.2466C89.0263 32.4955 88.3111 31.5287 87.4985 31.5058ZM43.3119 35.5922C42.3733 35.9204 42.5618 37.1351 43.3531 37.3237C43.4645 38.3431 43.5109 39.4167 43.4354 40.4808C42.4488 39.3958 41.4221 38.367 40.8137 36.9268C40.509 36.2048 39.3729 36.1454 38.8859 36.6783C38.2066 37.4216 37.3503 37.9535 36.4778 38.4697C36.6293 37.6305 36.795 36.7955 36.994 35.9699C37.2216 35.7709 37.3461 35.4729 37.257 35.1672C36.9888 34.2488 36.0048 33.8347 35.2474 33.3399C34.9135 33.1216 34.5978 32.8763 34.2759 32.6398C35.6042 32.0856 36.8913 31.4417 38.1946 30.7927C38.4113 30.7958 38.6119 30.7073 38.7556 30.5135C38.8187 30.4828 38.8796 30.451 38.9426 30.4202C39.2099 30.2905 39.2547 30.028 39.1708 29.8009C39.6573 28.8758 40.2381 28.0038 40.8038 27.1245C41.481 28.7622 41.892 30.4718 42.6004 32.134C42.7848 32.5663 43.1702 32.7101 43.5583 32.6705C43.6667 32.9591 43.8995 33.1925 44.3251 33.2518C45.1924 33.3732 46.0372 33.5076 46.8749 33.6738C45.7372 34.414 44.5949 35.1432 43.3119 35.5922Z" fill="#231E20"/>
</svg>
