<svg width="91" height="81" viewBox="0 0 91 81" fill="none" xmlns="http://www.w3.org/2000/svg">
<path d="M58.398 24.7508C67.5512 25.7643 75.5709 26.4301 83.5168 27.608C89.3766 28.4761 90.0045 30.244 90.6851 36.1734C91.9789 47.419 89.0015 57.9924 86.3445 68.6101C84.9938 74.0064 81.9638 78.17 75.5414 78.5915C68.7776 79.0361 62.0454 80.098 55.2795 80.3656C47.6412 80.6712 39.9798 80.3804 32.3268 80.3635C28.2306 80.3551 24.2587 79.9421 20.8684 77.2808C17.5813 74.7017 13.6179 75.2264 9.84193 75.0094C3.99472 74.6701 2.05619 73.1678 0.753998 67.4154C-0.919041 60.011 0.94153 53.1039 4.02422 46.4392C4.72378 44.9284 5.82579 43.603 6.61806 42.3851C10.7817 41.5802 14.9264 41.3779 18.6033 39.9619C31.5662 34.9702 40.6435 26.5734 41.341 11.6256C41.5496 7.15857 42.483 3.21829 47.2872 1.37247C52.0914 -0.471243 55.8168 1.06694 57.0452 6.07974C57.8902 9.5396 58.0798 13.1765 58.358 16.7501C58.5539 19.2217 58.398 21.7229 58.398 24.7508ZM51.7522 7.12275C51.2739 7.04479 50.7914 6.96683 50.3109 6.88886C47.6707 9.83459 47.6855 9.83459 47.144 15.2098C46.4423 22.1464 44.2741 28.3055 38.8862 33.2213C31.8401 39.6522 24.2798 44.8968 14.4776 45.7733C11.9554 45.9967 9.87564 46.7215 8.61349 48.915C5.06302 55.0846 3.73555 61.4375 7.16591 68.254C14.0498 69.2696 20.8705 69.6953 26.5934 74.038C27.767 74.9272 29.851 74.7628 31.524 74.8218C40.0135 75.1211 48.5157 75.6837 56.9968 75.4687C64.6076 75.277 72.7874 76.5412 79.4943 69.5752C73.0845 69.2907 66.9191 71.1091 61.1878 67.7947C61.0698 64.8658 62.8461 64.339 65.2503 64.4949C68.0022 64.6719 70.7519 64.8553 73.508 64.9522C78.9275 65.146 82.2314 62.6028 83.3861 57.2128C76.458 55.5924 69.0325 59.4337 61.7778 55.5081C64.6308 51.6163 68.0633 52.7478 71.0427 52.3243C74.5742 51.8228 78.1289 51.3993 81.5993 50.6112C84.2711 50.0044 85.1308 48.0216 84.4923 45.0843C77.9414 44.5617 71.0174 47.4885 63.6068 42.1913C66.9107 41.3168 68.7628 40.573 70.674 40.3834C73.1962 40.1284 75.7689 40.4382 78.3059 40.2675C83.9171 39.8903 84.9348 38.2046 83.1038 32.1214C75.0251 31.5715 66.8138 30.7455 58.5855 30.5453C53.3199 30.4189 51.9271 29.3443 52.0029 24.0575C52.0851 18.4168 51.8491 12.7698 51.7522 7.12275Z" fill="#231F20"/>
</svg>
