<?xml version="1.0" standalone="no"?>
<!DOCTYPE svg PUBLIC "-//W3C//DTD SVG 20010904//EN"
 "http://www.w3.org/TR/2001/REC-SVG-20010904/DTD/svg10.dtd">
<svg version="1.0" xmlns="http://www.w3.org/2000/svg"
 width="104.000000pt" height="100.000000pt" viewBox="0 0 104.000000 100.000000"
 preserveAspectRatio="xMidYMid meet">

<g transform="translate(0.000000,100.000000) scale(0.100000,-0.100000)"
fill="#000000" stroke="none">
<path d="M860 905 c0 -26 14 -31 39 -16 19 12 6 41 -19 41 -15 0 -20 -7 -20
-25z"/>
<path d="M772 868 c2 -15 11 -24 26 -26 18 -3 22 1 22 22 0 21 -5 26 -26 26
-21 0 -25 -4 -22 -22z"/>
<path d="M262 865 c-39 -17 -82 -61 -82 -86 0 -25 27 -49 55 -49 27 0 45 -26
45 -64 0 -14 4 -27 9 -31 6 -3 2 -19 -9 -38 -28 -49 -67 -184 -80 -278 -12
-89 -8 -145 16 -222 24 -73 45 -82 191 -82 78 0 127 5 134 12 19 19 32 179 19
251 -12 73 -29 110 -71 162 -21 25 -29 45 -29 75 0 45 -21 82 -54 95 -21 8
-21 8 -1 16 26 10 35 23 35 55 0 25 27 59 47 59 5 0 18 9 28 20 17 19 19 19
38 3 18 -17 20 -17 43 10 26 30 32 71 12 84 -7 4 -76 8 -154 8 -77 1 -145 4
-150 7 -5 4 -24 0 -42 -7z m234 -30 c12 -29 -5 -65 -30 -65 -29 0 -56 -30 -65
-72 -6 -30 -10 -33 -41 -33 -30 0 -36 4 -39 25 -6 43 -39 80 -72 80 -33 0 -37
10 -11 32 42 37 77 47 165 48 69 0 89 -3 93 -15z m94 -10 c0 -8 -4 -15 -10
-15 -5 0 -10 7 -10 15 0 8 5 15 10 15 6 0 10 -7 10 -15z m-168 -242 c12 -11
18 -30 18 -63 0 -37 7 -56 31 -90 17 -23 37 -61 45 -84 16 -44 20 -163 9 -240
l-7 -47 -122 3 -121 3 -19 40 c-40 82 -17 304 48 458 15 34 19 37 58 37 25 0
49 -7 60 -17z"/>
<path d="M681 836 c-10 -12 -8 -19 9 -36 12 -12 27 -19 33 -17 20 6 20 40 1
54 -23 17 -29 16 -43 -1z"/>
<path d="M866 823 c-10 -24 8 -37 33 -24 25 14 27 27 5 35 -24 9 -31 7 -38
-11z"/>
<path d="M769 769 c-14 -28 1 -43 26 -25 11 8 16 19 12 30 -9 22 -24 20 -38
-5z"/>
<path d="M855 731 c-7 -12 22 -41 41 -41 8 0 14 10 14 25 0 20 -5 25 -24 25
-14 0 -27 -4 -31 -9z"/>
<path d="M475 720 c-10 -16 21 -75 55 -103 18 -15 34 -26 37 -24 6 7 -67 137
-77 137 -5 0 -11 -4 -15 -10z"/>
</g>
</svg>
