<svg width="91" height="66" viewBox="0 0 91 66" fill="none" xmlns="http://www.w3.org/2000/svg">
<path d="M70.6465 65.0676C61.4532 65.2967 51.5833 62.8597 42.0153 58.915C39.14 57.7293 36.1974 56.6945 33.3548 55.4378C24.7508 51.6331 16.5759 53.5464 8.51193 57.1728C7.84812 57.471 7.25523 57.9257 6.60779 58.2658C2.71404 60.3154 0.566196 59.2006 0.671679 54.894C0.815353 49.047 1.35731 43.2145 1.59192 37.3694C1.88291 30.0765 2.22482 22.7801 2.18844 15.4854C2.15934 9.27467 3.81614 6.47575 9.85046 4.76802C15.4447 3.18215 20.737 0.710589 26.8131 0.592376C36.3174 0.403235 44.6906 3.76048 53.1292 7.4069C57.8158 9.43289 62.6171 11.608 67.5784 12.441C71.1103 13.0357 75.0895 11.8208 78.6977 10.8114C81.0874 10.1422 83.1625 8.37443 85.4049 7.15047C89.0768 5.14812 91.0482 6.15748 90.9955 10.2949C90.9264 15.9583 90.4117 21.6161 90.2862 27.2812C90.0753 36.8037 90.028 46.3317 89.8898 55.8561C89.8661 57.5001 89.8007 59.1515 89.617 60.7828C89.3496 63.1471 87.9765 64.2237 85.5541 64.3001C80.9965 64.4438 76.4408 64.7584 70.6465 65.0676ZM76.2225 17.1658C69.8263 18.348 64.2866 17.3623 58.9125 15.2544C53.6384 13.1848 48.4061 11.0115 43.1411 8.91639C35.1444 5.73191 26.9695 4.29153 18.4855 6.7249C16.6159 7.25959 14.3316 7.59059 14.3207 10.3095C14.3025 15.1271 11.3945 17.9842 7.59532 20.2121C7.09337 27.7686 6.5987 35.2142 6.16767 41.716C9.24303 43.3491 11.8583 44.193 13.7297 45.8698C15.8484 47.7666 17.9162 48.5487 20.6515 48.1958C26.4548 47.4484 31.8672 48.8851 37.2104 51.0784C42.6191 53.2972 48.0751 55.465 53.6638 57.1473C59.7545 58.9805 66.0016 60.3882 72.5088 59.8389C75.3041 55.3559 77.7084 50.6019 84.2428 50.8275C84.2428 42.1979 84.2428 34.0066 84.2428 25.5571C80.089 24.5442 77.3537 21.8525 76.2225 17.1658ZM85.2485 14.6052C84.8903 14.3269 84.5283 14.0487 84.1683 13.7704C83.0661 14.7034 81.1456 15.5436 81.0292 16.5893C80.7965 18.6535 81.5785 20.8141 84.8212 21.1669C84.9776 18.7845 85.1121 16.6966 85.2485 14.6052ZM83.9937 54.7976C80.7401 54.9795 78.9851 56.318 77.7993 59.6407C80.2054 59.4243 82.0113 59.2624 83.9937 59.086C83.9937 57.4765 83.9937 56.2834 83.9937 54.7976ZM6.19859 50.8693C6.57687 51.1293 6.95515 51.3876 7.33344 51.6495C8.68106 51.0839 10.0269 50.5201 11.3745 49.9545C11.3763 49.5671 11.3781 49.1816 11.38 48.796C10.0032 48.4086 8.62287 47.7812 7.2516 47.7976C6.88968 47.803 6.54959 49.7908 6.19859 50.8693Z" fill="#231F20"/>
<path d="M49.8998 20.1376C52.2258 23.1256 54.2064 25.4681 53.6153 28.8853C49.1796 30.9004 49.1796 30.9004 51.011 35.4525C52.9169 40.1792 51.2656 45.286 46.9244 47.8358C46.3534 48.1722 45.164 48.4341 44.8912 48.1431C43.4617 46.6118 42.0686 44.9859 41.0502 43.1746C40.7919 42.7181 41.7703 41.2704 42.4869 40.6121C45.3095 38.0096 45.5804 36.6165 43.5617 33.472C40.65 28.9381 40.53 25.8464 43.6927 23.2038C45.2913 21.8653 47.5137 21.2779 49.8998 20.1376Z" fill="#231F20"/>
<path d="M44.6479 19.2536C43.3075 20.2539 42.46 20.8522 41.6471 21.4961C36.4112 25.6317 33.2921 30.5985 35.4673 37.5785C36.1765 39.8518 35.1235 41.0085 32.501 41.7596C31.9318 40.612 31.1043 39.4499 30.7606 38.1604C29.0456 31.7388 31.8918 23.3384 37.1623 19.541C39.1501 18.1061 41.3997 16.5766 44.6479 19.2536Z" fill="#231F20"/>
<path d="M60.2576 24.295C63.6604 22.4381 64.4096 22.5745 65.4481 25.0388C68.007 31.1113 63.7877 44.0475 58.0862 47.1501C57.0368 47.7212 55.5691 47.5284 54.2961 47.6884C54.1251 47.3283 53.9542 46.9664 53.7832 46.6045C54.4798 45.697 55.0544 44.6549 55.8892 43.902C61.4961 38.8534 63.2475 31.5515 60.2576 24.295Z" fill="#231F20"/>
</svg>
