<svg width="83" height="83" viewBox="0 0 83 83" fill="none" xmlns="http://www.w3.org/2000/svg">
<path d="M81.4731 43.1833C68.6622 28.1093 56.6502 11.2419 39.8054 0.367384C38.526 -0.458616 37.1284 0.221593 36.3104 1.28334C24.446 16.695 9.32228 29.6886 0.874398 47.5083C0.0727715 49.1988 1.01576 51.3245 3.06303 51.3223C6.64044 51.3183 10.217 51.3015 13.7939 51.2687C13.4075 61.396 13.2369 71.4627 14.7068 81.5302C14.9873 83.4512 18.1694 82.9824 18.071 81.0751C17.5118 70.256 18.0117 59.5801 18.827 48.7876C18.9294 47.4307 17.6261 46.3371 16.3583 46.3189C13.3091 46.2759 10.2599 46.2786 7.21075 46.2733C15.473 31.2161 28.3499 19.3694 39.0303 6.00359C53.2624 15.78 63.996 30.1078 74.9755 43.3504C71.2948 43.8679 67.7085 43.7642 63.8395 43.7013C62.4468 43.6783 61.2849 44.8796 61.2849 46.2555C61.2849 52.7891 61.1666 59.3359 61.3128 65.8677C61.3686 68.3461 61.5548 70.8259 61.6536 73.303C61.7001 74.4942 61.709 75.6862 61.681 76.8778C61.5521 77.402 61.522 77.7733 61.572 78.0224C61.1524 78.8129 61.1519 79.9101 61.7613 80.6209C61.8787 80.7574 61.9948 80.8939 62.1118 81.0304C62.7016 81.7194 64.0017 81.898 64.7458 81.3707C67.7856 79.2166 66.8094 74.5044 66.6822 71.3089C66.384 63.8187 66.3885 56.3368 66.3924 48.843C71.1335 48.8864 75.6792 48.7468 80.3454 47.4524C82.3102 46.9069 82.69 44.6151 81.4731 43.1833Z" fill="#231E20"/>
<path d="M55.8931 34.1788C49.0914 26.8946 41.7146 34.9104 38.4367 42.1149C34.3479 37.2085 27.9704 33.8917 23.695 40.957C16.9014 52.1842 28.5518 67.5547 37.5912 73.1612C39.3119 74.2287 40.6945 72.2789 40.0502 70.7988C40.905 72.1305 43.2332 72.6675 44.4593 70.9331C49.8616 63.2953 64.9378 43.8635 55.8931 34.1788ZM53.3105 40.0791C53.0592 39.9462 52.8151 39.8137 52.5975 39.6776C51.148 38.7679 49.7849 37.7549 48.4404 36.714C51.1165 35.5348 52.7783 37.4872 53.3105 40.0791ZM35.2661 45.3373C33.7386 44.0899 32.2169 42.8341 30.6841 41.5911C32.5333 41.7444 34.0861 43.4846 35.2661 45.3373ZM39.8889 70.49C39.7692 70.3145 39.6345 70.1426 39.4413 69.9968C37.254 68.3439 35.2723 66.4105 33.533 64.2888C33.9518 64.6482 34.3475 65.0301 34.776 65.3802C36.276 66.6059 38.0667 68.1768 40.0413 68.6616C39.6713 69.3166 39.6567 69.9507 39.8889 70.49ZM41.4571 66.6232C37.4069 65.3807 33.7014 62.2371 30.245 59.4205C28.9887 57.1247 28.0187 54.6786 27.4329 52.1142C29.7438 55.0127 32.1961 57.7676 34.8735 60.344C36.8703 62.2659 39.2175 64.5467 41.7407 66.2306C41.6468 66.3604 41.5493 66.4951 41.4571 66.6232ZM43.3364 64.0229C41.0357 62.2694 38.4669 60.7256 36.3026 58.9145C33.1502 56.2774 30.2782 53.319 27.6017 50.2056C27.4532 50.0323 27.2578 49.9911 27.0677 50.0199C27.0394 49.8187 26.9888 49.6233 26.9658 49.4208C26.9317 49.1266 26.9051 48.7849 26.8914 48.414C29.6379 51.3666 32.575 54.1344 35.5985 56.8065C38.0388 58.9637 40.8252 61.6592 43.8266 63.3396C43.6635 63.5674 43.4986 63.7982 43.3364 64.0229ZM45.2969 61.2582C42.3917 58.8099 38.7841 56.8583 35.8555 54.5341C32.7115 52.0388 29.7761 49.3034 26.9459 46.4611C27.0017 45.8638 27.1018 45.2585 27.2538 44.6846C29.7097 47.8995 32.7239 50.592 35.8386 53.253C38.3915 55.4346 42.0855 59.3629 45.6141 60.7894C45.5078 60.944 45.4028 61.1044 45.2969 61.2582ZM47.1961 58.4217C46.3076 57.6874 45.265 57.1313 44.2825 56.4746C41.6623 54.7247 39.136 52.8245 36.6478 50.8929C33.6819 48.5908 30.3181 46.2081 27.6677 43.5493C27.9553 42.9333 28.3506 42.4286 28.8544 42.0741C34.2389 47.4927 40.7322 53.9146 47.7066 57.6072C47.536 57.878 47.3707 58.1532 47.1961 58.4217ZM49.1526 55.2108C46.3533 53.3314 43.4424 51.6006 40.7131 49.6003C40.6488 49.5533 40.5877 49.5032 40.5234 49.4558C40.9785 49.1651 41.3353 48.7393 41.4407 48.1534C41.4788 47.9412 41.5285 47.7325 41.5701 47.5206C42.65 48.5 43.7623 49.4407 44.9419 50.3177C46.4401 51.4317 48.2503 52.8852 50.1128 53.4684C49.8057 54.052 49.4849 54.6334 49.1526 55.2108ZM51.2162 51.2017C49.8718 50.187 48.2056 49.4908 46.7947 48.6081C45.1471 47.5774 43.6205 46.3747 42.1542 45.102C42.3709 44.3691 42.627 43.6525 42.9221 42.9577C44.45 44.3345 45.9593 45.7308 47.5834 46.9977C48.7573 47.9137 50.4075 49.2688 52.0156 49.2431C51.7675 49.8967 51.5118 50.5499 51.2162 51.2017ZM52.7211 47.1001C51.4958 46.1638 49.7747 45.6413 48.4892 44.7754C46.8624 43.6791 45.3456 42.4255 43.8026 41.2122C44.0317 40.8192 44.2785 40.4389 44.5462 40.0716C46.0267 41.3137 47.5152 42.5491 48.9549 43.8364C50.0721 44.8362 51.3199 46.3206 52.7415 47.019C52.7335 47.0461 52.7286 47.0726 52.7211 47.1001ZM50.2241 42.1902C48.6895 41.0735 47.1992 39.8943 45.6992 38.7298C45.9624 38.4621 46.2376 38.2033 46.5279 37.9561C47.7563 39.1104 49.1725 40.1137 50.5103 41.0886C51.3895 41.7293 52.379 42.6697 53.4319 43.3649C53.4035 43.6884 53.3778 44.0115 53.3295 44.3372C52.3444 43.5373 51.1537 42.8664 50.2241 42.1902Z" fill="#231E20"/>
</svg>
